<svg width="82" height="20" viewBox="0 0 82 20" version="1.1" xmlns="http://www.w3.org/2000/svg" xmlns:xlink="http://www.w3.org/1999/xlink">
<title>jarvis-logo</title>
<desc>Created using Figma</desc>
<g id="Canvas" transform="translate(140 48)">
<g id="jarvis-logo">
<g id="Jarvisdev">
<use xlink:href="#path0_fill" transform="translate(-119 -48)"/>
</g>
<g id="Polygon">
<use xlink:href="#path1_fill" transform="matrix(-1 0 0 -1 -122 -28)" fill="#007CC2"/>
</g>
<g id="Polygon">
<use xlink:href="#path1_fill" transform="matrix(-1 0 0 1 -128 -38)" fill="#0093DD"/>
</g>
<g id="Polygon">
<use xlink:href="#path1_fill" transform="matrix(-1 0 0 1 -122 -48)" fill="#D5AB2E"/>
</g>
<g id="Polygon">
<use xlink:href="#path1_fill" transform="matrix(-1 0 0 -1 -128 -38)" fill="#EDC855"/>
</g>
</g>
</g>
<defs>
<path fill="#FFFFFF" id="path0_fill" d="M 3.984 10.504L 3.984 4.624L 5.664 4.624L 5.664 10.504C 5.664 11.312 5.42 11.944 4.932 12.4C 4.452 12.856 3.828 13.084 3.06 13.084C 2.292 13.084 1.664 12.856 1.176 12.4C 0.688 11.944 0.444 11.312 0.444 10.504L 2.136 10.504C 2.144 10.848 2.228 11.116 2.388 11.308C 2.548 11.492 2.772 11.584 3.06 11.584C 3.348 11.584 3.572 11.492 3.732 11.308C 3.9 11.116 3.984 10.848 3.984 10.504ZM 12.0735 11.116C 12.4255 10.764 12.6015 10.284 12.6015 9.676C 12.6015 9.068 12.4255 8.592 12.0735 8.248C 11.7215 7.896 11.3095 7.72 10.8375 7.72C 10.3655 7.72 9.9535 7.892 9.6015 8.236C 9.2575 8.58 9.0855 9.056 9.0855 9.664C 9.0855 10.272 9.2615 10.752 9.6135 11.104C 9.9655 11.456 10.3735 11.632 10.8375 11.632C 11.3095 11.632 11.7215 11.46 12.0735 11.116ZM 8.2575 12.136C 7.6655 11.488 7.3695 10.664 7.3695 9.664C 7.3695 8.664 7.6655 7.848 8.2575 7.216C 8.8495 6.576 9.6015 6.256 10.5135 6.256C 11.4255 6.256 12.1215 6.632 12.6015 7.384L 12.6015 6.352L 14.2815 6.352L 14.2815 13L 12.6015 13L 12.6015 11.884C 12.0975 12.692 11.3975 13.096 10.5015 13.096C 9.6055 13.096 8.8575 12.776 8.2575 12.136ZM 17.7678 6.352L 17.7678 7.528C 18.2158 6.68 18.8638 6.256 19.7118 6.256L 19.7118 7.984L 19.2918 7.984C 18.7878 7.984 18.4078 8.112 18.1518 8.368C 17.8958 8.616 17.7678 9.048 17.7678 9.664L 17.7678 13L 16.0758 13L 16.0758 6.352L 17.7678 6.352ZM 20.0996 6.352L 21.8996 6.352L 23.6156 11.548L 25.3196 6.352L 27.1196 6.352L 24.6716 13L 22.5476 13L 20.0996 6.352ZM 29.9712 4.66C 29.9712 4.948 29.8712 5.192 29.6712 5.392C 29.4712 5.592 29.2272 5.692 28.9392 5.692C 28.6592 5.692 28.4192 5.592 28.2192 5.392C 28.0192 5.192 27.9192 4.948 27.9192 4.66C 27.9192 4.372 28.0192 4.128 28.2192 3.928C 28.4192 3.728 28.6592 3.628 28.9392 3.628C 29.2272 3.628 29.4712 3.728 29.6712 3.928C 29.8712 4.128 29.9712 4.372 29.9712 4.66ZM 28.0992 13L 28.0992 6.352L 29.7912 6.352L 29.7912 13L 28.0992 13ZM 31.2194 8.296C 31.2194 7.72 31.4634 7.236 31.9514 6.844C 32.4394 6.452 33.0874 6.256 33.8954 6.256C 34.7034 6.256 35.3514 6.452 35.8394 6.844C 36.3274 7.228 36.5874 7.752 36.6194 8.416L 34.8914 8.416C 34.8434 7.856 34.4994 7.576 33.8594 7.576C 33.5394 7.576 33.2914 7.64 33.1154 7.768C 32.9394 7.896 32.8514 8.072 32.8514 8.296C 32.8514 8.52 32.9834 8.696 33.2474 8.824C 33.5114 8.952 33.8314 9.052 34.2074 9.124C 34.5834 9.196 34.9554 9.288 35.3234 9.4C 35.6994 9.504 36.0194 9.696 36.2834 9.976C 36.5474 10.248 36.6794 10.612 36.6794 11.068C 36.6794 11.668 36.4234 12.156 35.9114 12.532C 35.4074 12.908 34.7594 13.096 33.9674 13.096C 33.1834 13.096 32.5394 12.912 32.0354 12.544C 31.5314 12.168 31.2554 11.632 31.2074 10.936L 32.9354 10.936C 32.9994 11.496 33.3554 11.776 34.0034 11.776C 34.3154 11.776 34.5674 11.708 34.7594 11.572C 34.9514 11.428 35.0474 11.244 35.0474 11.02C 35.0474 10.788 34.9154 10.608 34.6514 10.48C 34.3874 10.344 34.0674 10.24 33.6914 10.168C 33.3154 10.096 32.9394 10.008 32.5634 9.904C 32.1954 9.8 31.8794 9.616 31.6154 9.352C 31.3514 9.08 31.2194 8.728 31.2194 8.296ZM 42.3548 11.116C 42.7068 10.764 42.8828 10.284 42.8828 9.676C 42.8828 9.068 42.7068 8.592 42.3548 8.248C 42.0028 7.896 41.5907 7.72 41.1187 7.72C 40.6467 7.72 40.2347 7.892 39.8828 8.236C 39.5388 8.58 39.3667 9.056 39.3667 9.664C 39.3667 10.272 39.5428 10.752 39.8948 11.104C 40.2467 11.456 40.6547 11.632 41.1187 11.632C 41.5907 11.632 42.0028 11.46 42.3548 11.116ZM 38.5388 12.136C 37.9468 11.488 37.6508 10.664 37.6508 9.664C 37.6508 8.664 37.9468 7.848 38.5388 7.216C 39.1307 6.576 39.8828 6.256 40.7948 6.256C 41.7067 6.256 42.4028 6.632 42.8828 7.384L 42.8828 4.12L 44.5628 4.12L 44.5628 13L 42.8828 13L 42.8828 11.884C 42.3788 12.692 41.6788 13.096 40.7828 13.096C 39.8867 13.096 39.1388 12.776 38.5388 12.136ZM 49.165 13.096C 48.197 13.096 47.409 12.784 46.801 12.16C 46.193 11.528 45.889 10.696 45.889 9.664C 45.889 8.632 46.193 7.808 46.801 7.192C 47.417 6.568 48.209 6.256 49.177 6.256C 50.153 6.256 50.953 6.56 51.577 7.168C 52.201 7.768 52.513 8.572 52.513 9.58C 52.513 9.812 52.497 10.028 52.465 10.228L 47.617 10.228C 47.657 10.66 47.817 11.008 48.097 11.272C 48.377 11.536 48.733 11.668 49.165 11.668C 49.749 11.668 50.181 11.428 50.461 10.948L 52.285 10.948C 52.093 11.58 51.721 12.096 51.169 12.496C 50.617 12.896 49.949 13.096 49.165 13.096ZM 50.761 9.136C 50.737 8.696 50.573 8.344 50.269 8.08C 49.973 7.816 49.613 7.684 49.189 7.684C 48.765 7.684 48.409 7.816 48.121 8.08C 47.841 8.344 47.673 8.696 47.617 9.136L 50.761 9.136ZM 53.0293 6.352L 54.8293 6.352L 56.5453 11.548L 58.2493 6.352L 60.0493 6.352L 57.6013 13L 55.4773 13L 53.0293 6.352Z"/>
<path id="path1_fill" d="M 6 0L 12 10L 0 10L 6 0Z"/>
</defs>
</svg>
